<?xml version="1.0" standalone="no"?>
<!DOCTYPE svg PUBLIC "-//W3C//DTD SVG 20010904//EN"
 "http://www.w3.org/TR/2001/REC-SVG-20010904/DTD/svg10.dtd">
<svg version="1.0" xmlns="http://www.w3.org/2000/svg"
 width="512.000000pt" height="512.000000pt" viewBox="0 0 512.000000 512.000000"
 preserveAspectRatio="xMidYMid meet">

<g transform="translate(0.000000,512.000000) scale(0.100000,-0.100000)"
fill="#000000" stroke="none">
<path d="M1023 4885 c-178 -48 -304 -187 -332 -365 -15 -90 -15 -3830 0 -3920
28 -180 155 -318 336 -365 49 -13 256 -15 1524 -15 955 0 1485 4 1520 10 184
35 330 185 359 370 14 88 14 2952 0 3000 -8 27 -147 172 -628 653 -339 340
-629 625 -644 633 -40 21 -2056 20 -2135 -1z m1979 -668 l3 -462 32 -65 c35
-71 96 -139 158 -175 87 -51 126 -55 587 -55 l428 0 0 -1425 c0 -1573 5 -1460
-65 -1528 -73 -71 22 -67 -1585 -67 -1607 0 -1512 -4 -1585 67 -70 68 -65 -99
-65 2053 0 2152 -5 1985 66 2054 69 67 27 65 1076 65 l947 1 3 -463z m1048
-530 c0 -4 -159 -7 -352 -5 -394 3 -390 3 -445 75 l-28 36 -3 366 -3 366 416
-415 c228 -228 415 -419 415 -423z"/>
<path d="M2001 4074 c-126 -34 -228 -119 -289 -243 -36 -73 -37 -77 -37 -191
0 -114 1 -117 38 -192 139 -282 507 -343 720 -119 34 36 71 88 90 128 30 64
32 74 32 183 0 109 -2 119 -32 183 -38 80 -122 173 -191 210 -101 55 -224 70
-331 41z m217 -233 c72 -37 122 -115 122 -192 0 -161 -137 -267 -288 -224
-159 47 -217 250 -104 368 71 75 179 94 270 48z"/>
<path d="M1830 3124 c-169 -44 -334 -179 -408 -335 -47 -99 -58 -144 -66 -259
-7 -103 6 -145 53 -177 42 -28 66 -29 109 -3 45 27 62 74 62 164 0 164 86 297
240 370 l65 31 230 0 230 0 65 -31 c94 -45 153 -102 196 -189 33 -67 38 -86
44 -180 7 -115 21 -147 75 -174 25 -12 35 -12 69 0 66 24 81 55 79 165 -4 184
-60 321 -182 444 -87 88 -172 139 -281 169 -66 19 -102 21 -300 20 -162 0
-240 -4 -280 -15z"/>
<path d="M1337 1720 c-30 -24 -50 -78 -42 -113 4 -14 20 -38 36 -53 l30 -29
699 -3 c777 -3 755 -4 786 61 23 48 12 98 -27 131 l-31 26 -712 0 c-700 0
-714 0 -739 -20z"/>
<path d="M1344 1141 c-20 -12 -37 -34 -44 -55 -16 -49 2 -101 44 -127 30 -18
64 -19 1118 -19 l1086 0 31 26 c57 47 50 137 -13 175 -30 18 -72 19 -1111 19
-1047 0 -1081 -1 -1111 -19z"/>
</g>
</svg>
